%
M48
M72
T01C0.0120
T02C0.0295
T03C0.0390
T04C0.0400
T05C0.0935
T06C0.1181
%
T01
X22010Y2010
X24610Y2010
X1010Y11530
X1050Y3050
X1010Y1330
X2770Y4090
X4210Y5770
X3410Y6010
X3450Y6370
X3930Y6650
X1010Y8010
X970Y5730
X5090Y6650
X4290Y8610
X8970Y5490
X9730Y5530
X10290Y6530
X10570Y6770
X10330Y6998
X10736Y7404
X10450Y7549
X10486Y7894
X10330Y8170
X10450Y8730
X9170Y9530
X10450Y9770
X11970Y8170
X12330Y7170
X12010Y7050
X12330Y6740
X12010Y6610
X12330Y6310
X14330Y4370
X13010Y2010
X16010Y2010
X19010Y2010
X21690Y4490
X28010Y2010
X28250Y5010
X28250Y8010
X24930Y9770
X24650Y9370
X24370Y9530
X24258Y10935
X23930Y11250
X23280Y11850
X22770Y11690
X21820Y11890
X21570Y10210
X17170Y9050
X13330Y9050
X8490Y12210
X7010Y14010
X5570Y14010
X4010Y14010
X1010Y14010
X10010Y14010
X13010Y14010
X16010Y14010
X19010Y14010
X21750Y14010
X25370Y14010
X28250Y14010
X28250Y11330
X7010Y2010
T02
X6230Y7670
X6230Y13280
T03
X2370Y4390
X3170Y4390
X2770Y7390
T04
X6943Y9876
X6943Y11016
X26583Y5891
X27583Y5891
X27683Y6891
X26683Y6891
X26583Y7891
X27583Y7891
X27683Y8891
X26683Y8891
X26583Y9891
X27583Y9891
X27683Y10891
X26683Y10891
X26583Y11891
X27583Y11891
X27683Y12891
X26683Y12891
X26583Y13891
X27583Y13891
X27683Y14891
X26683Y14891
T05
X3770Y5140
X1770Y5140
X1770Y7390
X3770Y7390
T06
X10377Y2950
X19107Y12450
M30
