G75*
%MOIN*%
%OFA0B0*%
%FSLAX25Y25*%
%IPPOS*%
%LPD*%
%AMOC8*
5,1,8,0,0,1.08239X$1,22.5*
%
%ADD10C,0.00100*%
%ADD11C,0.00492*%
%ADD12R,0.07887X0.02060*%
%ADD13C,0.22047*%
%ADD14R,0.04343X0.06706*%
%ADD15R,0.02769X0.03162*%
%ADD16R,0.03162X0.02769*%
%ADD17C,0.01784*%
%ADD18OC8,0.08200*%
%ADD19C,0.08200*%
%ADD20C,0.03900*%
%ADD21C,0.00000*%
%ADD22C,0.04700*%
%ADD23C,0.10150*%
D10*
X0007311Y0010025D02*
X0046681Y0010025D01*
X0046681Y0012741D01*
X0204998Y0012741D01*
X0204998Y0021741D01*
X0205000Y0021898D01*
X0205006Y0022055D01*
X0205016Y0022212D01*
X0205030Y0022368D01*
X0205047Y0022524D01*
X0205069Y0022680D01*
X0205094Y0022835D01*
X0205124Y0022989D01*
X0205157Y0023143D01*
X0205194Y0023295D01*
X0205235Y0023447D01*
X0205280Y0023598D01*
X0205329Y0023747D01*
X0205381Y0023895D01*
X0205437Y0024042D01*
X0205497Y0024187D01*
X0205560Y0024331D01*
X0205627Y0024473D01*
X0205697Y0024613D01*
X0205771Y0024752D01*
X0205848Y0024889D01*
X0205929Y0025023D01*
X0206013Y0025156D01*
X0206101Y0025286D01*
X0206192Y0025415D01*
X0206286Y0025541D01*
X0206383Y0025664D01*
X0206483Y0025785D01*
X0206586Y0025904D01*
X0206692Y0026019D01*
X0206801Y0026133D01*
X0206913Y0026243D01*
X0207027Y0026350D01*
X0207144Y0026455D01*
X0207264Y0026557D01*
X0207386Y0026655D01*
X0207511Y0026751D01*
X0207638Y0026843D01*
X0207768Y0026932D01*
X0207899Y0027018D01*
X0208033Y0027101D01*
X0208168Y0027180D01*
X0208306Y0027255D01*
X0208446Y0027328D01*
X0208587Y0027396D01*
X0208730Y0027461D01*
X0208874Y0027523D01*
X0209020Y0027581D01*
X0209168Y0027635D01*
X0209317Y0027685D01*
X0209467Y0027732D01*
X0209618Y0027775D01*
X0209770Y0027814D01*
X0209923Y0027849D01*
X0210077Y0027880D01*
X0210232Y0027908D01*
X0210387Y0027931D01*
X0210543Y0027951D01*
X0210699Y0027967D01*
X0210856Y0027979D01*
X0211012Y0027987D01*
X0211169Y0027991D01*
X0211327Y0027991D01*
X0211484Y0027987D01*
X0211640Y0027979D01*
X0211797Y0027967D01*
X0211953Y0027951D01*
X0212109Y0027931D01*
X0212264Y0027908D01*
X0212419Y0027880D01*
X0212573Y0027849D01*
X0212726Y0027814D01*
X0212878Y0027775D01*
X0213029Y0027732D01*
X0213179Y0027685D01*
X0213328Y0027635D01*
X0213476Y0027581D01*
X0213622Y0027523D01*
X0213766Y0027461D01*
X0213909Y0027396D01*
X0214050Y0027328D01*
X0214190Y0027255D01*
X0214328Y0027180D01*
X0214463Y0027101D01*
X0214597Y0027018D01*
X0214728Y0026932D01*
X0214858Y0026843D01*
X0214985Y0026751D01*
X0215110Y0026655D01*
X0215232Y0026557D01*
X0215352Y0026455D01*
X0215469Y0026350D01*
X0215583Y0026243D01*
X0215695Y0026133D01*
X0215804Y0026019D01*
X0215910Y0025904D01*
X0216013Y0025785D01*
X0216113Y0025664D01*
X0216210Y0025541D01*
X0216304Y0025415D01*
X0216395Y0025286D01*
X0216483Y0025156D01*
X0216567Y0025023D01*
X0216648Y0024889D01*
X0216725Y0024752D01*
X0216799Y0024613D01*
X0216869Y0024473D01*
X0216936Y0024331D01*
X0216999Y0024187D01*
X0217059Y0024042D01*
X0217115Y0023895D01*
X0217167Y0023747D01*
X0217216Y0023598D01*
X0217261Y0023447D01*
X0217302Y0023295D01*
X0217339Y0023143D01*
X0217372Y0022989D01*
X0217402Y0022835D01*
X0217427Y0022680D01*
X0217449Y0022524D01*
X0217466Y0022368D01*
X0217480Y0022212D01*
X0217490Y0022055D01*
X0217496Y0021898D01*
X0217498Y0021741D01*
X0217498Y0012741D01*
X0219528Y0012741D01*
X0233093Y0012741D02*
X0249411Y0012741D01*
X0249411Y0023741D01*
X0249414Y0023970D01*
X0249422Y0024199D01*
X0249436Y0024427D01*
X0249456Y0024655D01*
X0249481Y0024883D01*
X0249511Y0025110D01*
X0249547Y0025336D01*
X0249589Y0025561D01*
X0249636Y0025785D01*
X0249688Y0026008D01*
X0249746Y0026229D01*
X0249810Y0026449D01*
X0249878Y0026668D01*
X0249952Y0026884D01*
X0250031Y0027099D01*
X0250116Y0027312D01*
X0250205Y0027522D01*
X0250300Y0027731D01*
X0250399Y0027937D01*
X0250504Y0028141D01*
X0250614Y0028342D01*
X0250728Y0028540D01*
X0250847Y0028735D01*
X0250971Y0028928D01*
X0251100Y0029117D01*
X0251233Y0029303D01*
X0251371Y0029486D01*
X0251513Y0029666D01*
X0251659Y0029841D01*
X0251810Y0030014D01*
X0251965Y0030182D01*
X0252124Y0030347D01*
X0252287Y0030508D01*
X0252453Y0030665D01*
X0252624Y0030818D01*
X0252798Y0030966D01*
X0252976Y0031111D01*
X0253157Y0031250D01*
X0253342Y0031386D01*
X0253529Y0031517D01*
X0253720Y0031643D01*
X0253914Y0031765D01*
X0254111Y0031882D01*
X0254311Y0031994D01*
X0254513Y0032101D01*
X0254718Y0032203D01*
X0254925Y0032300D01*
X0255135Y0032392D01*
X0255346Y0032479D01*
X0255560Y0032561D01*
X0255776Y0032638D01*
X0255993Y0032709D01*
X0256213Y0032775D01*
X0256433Y0032835D01*
X0256656Y0032891D01*
X0256879Y0032940D01*
X0257104Y0032985D01*
X0257329Y0033023D01*
X0257556Y0033057D01*
X0257783Y0033085D01*
X0258011Y0033107D01*
X0258239Y0033124D01*
X0258468Y0033135D01*
X0258697Y0033140D01*
X0258925Y0033140D01*
X0259154Y0033135D01*
X0259383Y0033124D01*
X0259611Y0033107D01*
X0259839Y0033085D01*
X0260066Y0033057D01*
X0260293Y0033023D01*
X0260518Y0032985D01*
X0260743Y0032940D01*
X0260966Y0032891D01*
X0261189Y0032835D01*
X0261409Y0032775D01*
X0261629Y0032709D01*
X0261846Y0032638D01*
X0262062Y0032561D01*
X0262276Y0032479D01*
X0262487Y0032392D01*
X0262697Y0032300D01*
X0262904Y0032203D01*
X0263109Y0032101D01*
X0263311Y0031994D01*
X0263511Y0031882D01*
X0263708Y0031765D01*
X0263902Y0031643D01*
X0264093Y0031517D01*
X0264280Y0031386D01*
X0264465Y0031250D01*
X0264646Y0031111D01*
X0264824Y0030966D01*
X0264998Y0030818D01*
X0265169Y0030665D01*
X0265335Y0030508D01*
X0265498Y0030347D01*
X0265657Y0030182D01*
X0265812Y0030014D01*
X0265963Y0029841D01*
X0266109Y0029666D01*
X0266251Y0029486D01*
X0266389Y0029303D01*
X0266522Y0029117D01*
X0266651Y0028928D01*
X0266775Y0028735D01*
X0266894Y0028540D01*
X0267008Y0028342D01*
X0267118Y0028141D01*
X0267223Y0027937D01*
X0267322Y0027731D01*
X0267417Y0027522D01*
X0267506Y0027312D01*
X0267591Y0027099D01*
X0267670Y0026884D01*
X0267744Y0026668D01*
X0267812Y0026449D01*
X0267876Y0026229D01*
X0267934Y0026008D01*
X0267986Y0025785D01*
X0268033Y0025561D01*
X0268075Y0025336D01*
X0268111Y0025110D01*
X0268141Y0024883D01*
X0268166Y0024655D01*
X0268186Y0024427D01*
X0268200Y0024199D01*
X0268208Y0023970D01*
X0268211Y0023741D01*
X0268211Y0012741D01*
X0285311Y0012741D01*
X0285311Y0196741D01*
X0268211Y0196741D01*
X0268211Y0185741D01*
X0268208Y0185512D01*
X0268200Y0185283D01*
X0268186Y0185055D01*
X0268166Y0184827D01*
X0268141Y0184599D01*
X0268111Y0184372D01*
X0268075Y0184146D01*
X0268033Y0183921D01*
X0267986Y0183697D01*
X0267934Y0183474D01*
X0267876Y0183253D01*
X0267812Y0183033D01*
X0267744Y0182814D01*
X0267670Y0182598D01*
X0267591Y0182383D01*
X0267506Y0182170D01*
X0267417Y0181960D01*
X0267322Y0181751D01*
X0267223Y0181545D01*
X0267118Y0181341D01*
X0267008Y0181140D01*
X0266894Y0180942D01*
X0266775Y0180747D01*
X0266651Y0180554D01*
X0266522Y0180365D01*
X0266389Y0180179D01*
X0266251Y0179996D01*
X0266109Y0179816D01*
X0265963Y0179641D01*
X0265812Y0179468D01*
X0265657Y0179300D01*
X0265498Y0179135D01*
X0265335Y0178974D01*
X0265169Y0178817D01*
X0264998Y0178664D01*
X0264824Y0178516D01*
X0264646Y0178371D01*
X0264465Y0178232D01*
X0264280Y0178096D01*
X0264093Y0177965D01*
X0263902Y0177839D01*
X0263708Y0177717D01*
X0263511Y0177600D01*
X0263311Y0177488D01*
X0263109Y0177381D01*
X0262904Y0177279D01*
X0262697Y0177182D01*
X0262487Y0177090D01*
X0262276Y0177003D01*
X0262062Y0176921D01*
X0261846Y0176844D01*
X0261629Y0176773D01*
X0261409Y0176707D01*
X0261189Y0176647D01*
X0260966Y0176591D01*
X0260743Y0176542D01*
X0260518Y0176497D01*
X0260293Y0176459D01*
X0260066Y0176425D01*
X0259839Y0176397D01*
X0259611Y0176375D01*
X0259383Y0176358D01*
X0259154Y0176347D01*
X0258925Y0176342D01*
X0258697Y0176342D01*
X0258468Y0176347D01*
X0258239Y0176358D01*
X0258011Y0176375D01*
X0257783Y0176397D01*
X0257556Y0176425D01*
X0257329Y0176459D01*
X0257104Y0176497D01*
X0256879Y0176542D01*
X0256656Y0176591D01*
X0256433Y0176647D01*
X0256213Y0176707D01*
X0255993Y0176773D01*
X0255776Y0176844D01*
X0255560Y0176921D01*
X0255346Y0177003D01*
X0255135Y0177090D01*
X0254925Y0177182D01*
X0254718Y0177279D01*
X0254513Y0177381D01*
X0254311Y0177488D01*
X0254111Y0177600D01*
X0253914Y0177717D01*
X0253720Y0177839D01*
X0253529Y0177965D01*
X0253342Y0178096D01*
X0253157Y0178232D01*
X0252976Y0178371D01*
X0252798Y0178516D01*
X0252624Y0178664D01*
X0252453Y0178817D01*
X0252287Y0178974D01*
X0252124Y0179135D01*
X0251965Y0179300D01*
X0251810Y0179468D01*
X0251659Y0179641D01*
X0251513Y0179816D01*
X0251371Y0179996D01*
X0251233Y0180179D01*
X0251100Y0180365D01*
X0250971Y0180554D01*
X0250847Y0180747D01*
X0250728Y0180942D01*
X0250614Y0181140D01*
X0250504Y0181341D01*
X0250399Y0181545D01*
X0250300Y0181751D01*
X0250205Y0181960D01*
X0250116Y0182170D01*
X0250031Y0182383D01*
X0249952Y0182598D01*
X0249878Y0182814D01*
X0249810Y0183033D01*
X0249746Y0183253D01*
X0249688Y0183474D01*
X0249636Y0183697D01*
X0249589Y0183921D01*
X0249547Y0184146D01*
X0249511Y0184372D01*
X0249481Y0184599D01*
X0249456Y0184827D01*
X0249436Y0185055D01*
X0249422Y0185283D01*
X0249414Y0185512D01*
X0249411Y0185741D01*
X0249411Y0196741D01*
X0217498Y0196741D01*
X0217498Y0187741D01*
X0217496Y0187584D01*
X0217490Y0187427D01*
X0217480Y0187270D01*
X0217466Y0187114D01*
X0217449Y0186958D01*
X0217427Y0186802D01*
X0217402Y0186647D01*
X0217372Y0186493D01*
X0217339Y0186339D01*
X0217302Y0186187D01*
X0217261Y0186035D01*
X0217216Y0185884D01*
X0217167Y0185735D01*
X0217115Y0185587D01*
X0217059Y0185440D01*
X0216999Y0185295D01*
X0216936Y0185151D01*
X0216869Y0185009D01*
X0216799Y0184869D01*
X0216725Y0184730D01*
X0216648Y0184593D01*
X0216567Y0184459D01*
X0216483Y0184326D01*
X0216395Y0184196D01*
X0216304Y0184067D01*
X0216210Y0183941D01*
X0216113Y0183818D01*
X0216013Y0183697D01*
X0215910Y0183578D01*
X0215804Y0183463D01*
X0215695Y0183349D01*
X0215583Y0183239D01*
X0215469Y0183132D01*
X0215352Y0183027D01*
X0215232Y0182925D01*
X0215110Y0182827D01*
X0214985Y0182731D01*
X0214858Y0182639D01*
X0214728Y0182550D01*
X0214597Y0182464D01*
X0214463Y0182381D01*
X0214328Y0182302D01*
X0214190Y0182227D01*
X0214050Y0182154D01*
X0213909Y0182086D01*
X0213766Y0182021D01*
X0213622Y0181959D01*
X0213476Y0181901D01*
X0213328Y0181847D01*
X0213179Y0181797D01*
X0213029Y0181750D01*
X0212878Y0181707D01*
X0212726Y0181668D01*
X0212573Y0181633D01*
X0212419Y0181602D01*
X0212264Y0181574D01*
X0212109Y0181551D01*
X0211953Y0181531D01*
X0211797Y0181515D01*
X0211640Y0181503D01*
X0211484Y0181495D01*
X0211327Y0181491D01*
X0211169Y0181491D01*
X0211012Y0181495D01*
X0210856Y0181503D01*
X0210699Y0181515D01*
X0210543Y0181531D01*
X0210387Y0181551D01*
X0210232Y0181574D01*
X0210077Y0181602D01*
X0209923Y0181633D01*
X0209770Y0181668D01*
X0209618Y0181707D01*
X0209467Y0181750D01*
X0209317Y0181797D01*
X0209168Y0181847D01*
X0209020Y0181901D01*
X0208874Y0181959D01*
X0208730Y0182021D01*
X0208587Y0182086D01*
X0208446Y0182154D01*
X0208306Y0182227D01*
X0208168Y0182302D01*
X0208033Y0182381D01*
X0207899Y0182464D01*
X0207768Y0182550D01*
X0207638Y0182639D01*
X0207511Y0182731D01*
X0207386Y0182827D01*
X0207264Y0182925D01*
X0207144Y0183027D01*
X0207027Y0183132D01*
X0206913Y0183239D01*
X0206801Y0183349D01*
X0206692Y0183463D01*
X0206586Y0183578D01*
X0206483Y0183697D01*
X0206383Y0183818D01*
X0206286Y0183941D01*
X0206192Y0184067D01*
X0206101Y0184196D01*
X0206013Y0184326D01*
X0205929Y0184459D01*
X0205848Y0184593D01*
X0205771Y0184730D01*
X0205697Y0184869D01*
X0205627Y0185009D01*
X0205560Y0185151D01*
X0205497Y0185295D01*
X0205437Y0185440D01*
X0205381Y0185587D01*
X0205329Y0185735D01*
X0205280Y0185884D01*
X0205235Y0186035D01*
X0205194Y0186187D01*
X0205157Y0186339D01*
X0205124Y0186493D01*
X0205094Y0186647D01*
X0205069Y0186802D01*
X0205047Y0186958D01*
X0205030Y0187114D01*
X0205016Y0187270D01*
X0205006Y0187427D01*
X0205000Y0187584D01*
X0204998Y0187741D01*
X0204998Y0196300D01*
X0193300Y0196300D01*
X0193300Y0150300D01*
X0186300Y0143300D01*
X0075300Y0143300D01*
X0059300Y0159300D01*
X0059300Y0196300D01*
X0046681Y0196300D01*
X0046681Y0199458D01*
X0007311Y0199458D01*
X0007311Y0193155D01*
X0011248Y0193155D01*
X0011248Y0193154D02*
X0011393Y0193152D01*
X0011539Y0193146D01*
X0011684Y0193136D01*
X0011828Y0193123D01*
X0011973Y0193105D01*
X0012116Y0193084D01*
X0012259Y0193059D01*
X0012402Y0193030D01*
X0012543Y0192997D01*
X0012684Y0192960D01*
X0012824Y0192920D01*
X0012962Y0192875D01*
X0013099Y0192828D01*
X0013235Y0192776D01*
X0013370Y0192721D01*
X0013503Y0192662D01*
X0013634Y0192600D01*
X0013764Y0192534D01*
X0013891Y0192465D01*
X0014017Y0192392D01*
X0014141Y0192316D01*
X0014263Y0192237D01*
X0014382Y0192154D01*
X0014500Y0192068D01*
X0014615Y0191980D01*
X0014727Y0191888D01*
X0014837Y0191793D01*
X0014945Y0191695D01*
X0015050Y0191594D01*
X0015152Y0191491D01*
X0015251Y0191385D01*
X0015348Y0191276D01*
X0015441Y0191164D01*
X0015531Y0191051D01*
X0015619Y0190934D01*
X0015703Y0190816D01*
X0015784Y0190695D01*
X0015861Y0190572D01*
X0015936Y0190448D01*
X0016007Y0190321D01*
X0016074Y0190192D01*
X0016138Y0190062D01*
X0016199Y0189929D01*
X0016256Y0189796D01*
X0016309Y0189660D01*
X0016359Y0189524D01*
X0016405Y0189386D01*
X0016447Y0189247D01*
X0016486Y0189107D01*
X0016521Y0188966D01*
X0016552Y0188824D01*
X0016579Y0188681D01*
X0016602Y0188537D01*
X0016622Y0188393D01*
X0016637Y0188249D01*
X0016649Y0188104D01*
X0016657Y0187959D01*
X0016661Y0187814D01*
X0016661Y0187668D01*
X0016657Y0187523D01*
X0016649Y0187378D01*
X0016637Y0187233D01*
X0016622Y0187089D01*
X0016602Y0186945D01*
X0016579Y0186801D01*
X0016552Y0186658D01*
X0016521Y0186516D01*
X0016486Y0186375D01*
X0016447Y0186235D01*
X0016405Y0186096D01*
X0016359Y0185958D01*
X0016309Y0185822D01*
X0016256Y0185686D01*
X0016199Y0185553D01*
X0016138Y0185420D01*
X0016074Y0185290D01*
X0016007Y0185161D01*
X0015936Y0185035D01*
X0015861Y0184910D01*
X0015784Y0184787D01*
X0015703Y0184666D01*
X0015619Y0184548D01*
X0015531Y0184431D01*
X0015441Y0184318D01*
X0015348Y0184206D01*
X0015251Y0184097D01*
X0015152Y0183991D01*
X0015050Y0183888D01*
X0014945Y0183787D01*
X0014837Y0183689D01*
X0014727Y0183594D01*
X0014615Y0183502D01*
X0014500Y0183414D01*
X0014382Y0183328D01*
X0014263Y0183245D01*
X0014141Y0183166D01*
X0014017Y0183090D01*
X0013891Y0183017D01*
X0013764Y0182948D01*
X0013634Y0182882D01*
X0013503Y0182820D01*
X0013370Y0182761D01*
X0013235Y0182706D01*
X0013099Y0182654D01*
X0012962Y0182607D01*
X0012824Y0182562D01*
X0012684Y0182522D01*
X0012543Y0182485D01*
X0012402Y0182452D01*
X0012259Y0182423D01*
X0012116Y0182398D01*
X0011973Y0182377D01*
X0011828Y0182359D01*
X0011684Y0182346D01*
X0011539Y0182336D01*
X0011393Y0182330D01*
X0011248Y0182328D01*
X0007311Y0182328D01*
X0007311Y0112615D01*
X0017540Y0112615D01*
X0017732Y0112613D01*
X0017923Y0112606D01*
X0018115Y0112594D01*
X0018306Y0112578D01*
X0018496Y0112557D01*
X0018686Y0112531D01*
X0018876Y0112501D01*
X0019064Y0112466D01*
X0019252Y0112427D01*
X0019439Y0112383D01*
X0019624Y0112334D01*
X0019808Y0112281D01*
X0019991Y0112224D01*
X0020173Y0112162D01*
X0020353Y0112095D01*
X0020531Y0112025D01*
X0020708Y0111950D01*
X0020882Y0111870D01*
X0021055Y0111787D01*
X0021225Y0111699D01*
X0021394Y0111608D01*
X0021560Y0111512D01*
X0021723Y0111412D01*
X0021885Y0111308D01*
X0022043Y0111200D01*
X0022199Y0111089D01*
X0022352Y0110973D01*
X0022503Y0110854D01*
X0022650Y0110732D01*
X0022794Y0110605D01*
X0022936Y0110476D01*
X0023074Y0110343D01*
X0023209Y0110206D01*
X0023340Y0110066D01*
X0023468Y0109924D01*
X0023592Y0109778D01*
X0023713Y0109629D01*
X0023830Y0109477D01*
X0023944Y0109323D01*
X0024054Y0109165D01*
X0024159Y0109005D01*
X0024261Y0108843D01*
X0024359Y0108678D01*
X0024453Y0108511D01*
X0024543Y0108341D01*
X0024628Y0108170D01*
X0024710Y0107996D01*
X0024787Y0107821D01*
X0024860Y0107643D01*
X0024928Y0107464D01*
X0024992Y0107283D01*
X0025052Y0107101D01*
X0025107Y0106918D01*
X0025158Y0106733D01*
X0025204Y0106547D01*
X0025246Y0106359D01*
X0025283Y0106171D01*
X0025316Y0105982D01*
X0025343Y0105793D01*
X0025367Y0105602D01*
X0025385Y0105411D01*
X0025399Y0105220D01*
X0025409Y0105029D01*
X0025413Y0104837D01*
X0025413Y0104645D01*
X0025409Y0104453D01*
X0025399Y0104262D01*
X0025385Y0104071D01*
X0025367Y0103880D01*
X0025343Y0103689D01*
X0025316Y0103500D01*
X0025283Y0103311D01*
X0025246Y0103123D01*
X0025204Y0102935D01*
X0025158Y0102749D01*
X0025107Y0102564D01*
X0025052Y0102381D01*
X0024992Y0102199D01*
X0024928Y0102018D01*
X0024860Y0101839D01*
X0024787Y0101661D01*
X0024710Y0101486D01*
X0024628Y0101312D01*
X0024543Y0101141D01*
X0024453Y0100971D01*
X0024359Y0100804D01*
X0024261Y0100639D01*
X0024159Y0100477D01*
X0024054Y0100317D01*
X0023944Y0100159D01*
X0023830Y0100005D01*
X0023713Y0099853D01*
X0023592Y0099704D01*
X0023468Y0099558D01*
X0023340Y0099416D01*
X0023209Y0099276D01*
X0023074Y0099139D01*
X0022936Y0099006D01*
X0022794Y0098877D01*
X0022650Y0098750D01*
X0022503Y0098628D01*
X0022352Y0098509D01*
X0022199Y0098393D01*
X0022043Y0098282D01*
X0021885Y0098174D01*
X0021723Y0098070D01*
X0021560Y0097970D01*
X0021394Y0097874D01*
X0021225Y0097783D01*
X0021055Y0097695D01*
X0020882Y0097612D01*
X0020708Y0097532D01*
X0020531Y0097457D01*
X0020353Y0097387D01*
X0020173Y0097320D01*
X0019991Y0097258D01*
X0019808Y0097201D01*
X0019624Y0097148D01*
X0019439Y0097099D01*
X0019252Y0097055D01*
X0019064Y0097016D01*
X0018876Y0096981D01*
X0018686Y0096951D01*
X0018496Y0096925D01*
X0018306Y0096904D01*
X0018115Y0096888D01*
X0017923Y0096876D01*
X0017732Y0096869D01*
X0017540Y0096867D01*
X0007311Y0096867D01*
X0007311Y0027155D01*
X0011248Y0027155D01*
X0011248Y0027154D02*
X0011393Y0027152D01*
X0011539Y0027146D01*
X0011684Y0027136D01*
X0011828Y0027123D01*
X0011973Y0027105D01*
X0012116Y0027084D01*
X0012259Y0027059D01*
X0012402Y0027030D01*
X0012543Y0026997D01*
X0012684Y0026960D01*
X0012824Y0026920D01*
X0012962Y0026875D01*
X0013099Y0026828D01*
X0013235Y0026776D01*
X0013370Y0026721D01*
X0013503Y0026662D01*
X0013634Y0026600D01*
X0013764Y0026534D01*
X0013891Y0026465D01*
X0014017Y0026392D01*
X0014141Y0026316D01*
X0014263Y0026237D01*
X0014382Y0026154D01*
X0014500Y0026068D01*
X0014615Y0025980D01*
X0014727Y0025888D01*
X0014837Y0025793D01*
X0014945Y0025695D01*
X0015050Y0025594D01*
X0015152Y0025491D01*
X0015251Y0025385D01*
X0015348Y0025276D01*
X0015441Y0025164D01*
X0015531Y0025051D01*
X0015619Y0024934D01*
X0015703Y0024816D01*
X0015784Y0024695D01*
X0015861Y0024572D01*
X0015936Y0024448D01*
X0016007Y0024321D01*
X0016074Y0024192D01*
X0016138Y0024062D01*
X0016199Y0023929D01*
X0016256Y0023796D01*
X0016309Y0023660D01*
X0016359Y0023524D01*
X0016405Y0023386D01*
X0016447Y0023247D01*
X0016486Y0023107D01*
X0016521Y0022966D01*
X0016552Y0022824D01*
X0016579Y0022681D01*
X0016602Y0022537D01*
X0016622Y0022393D01*
X0016637Y0022249D01*
X0016649Y0022104D01*
X0016657Y0021959D01*
X0016661Y0021814D01*
X0016661Y0021668D01*
X0016657Y0021523D01*
X0016649Y0021378D01*
X0016637Y0021233D01*
X0016622Y0021089D01*
X0016602Y0020945D01*
X0016579Y0020801D01*
X0016552Y0020658D01*
X0016521Y0020516D01*
X0016486Y0020375D01*
X0016447Y0020235D01*
X0016405Y0020096D01*
X0016359Y0019958D01*
X0016309Y0019822D01*
X0016256Y0019686D01*
X0016199Y0019553D01*
X0016138Y0019420D01*
X0016074Y0019290D01*
X0016007Y0019161D01*
X0015936Y0019035D01*
X0015861Y0018910D01*
X0015784Y0018787D01*
X0015703Y0018666D01*
X0015619Y0018548D01*
X0015531Y0018431D01*
X0015441Y0018318D01*
X0015348Y0018206D01*
X0015251Y0018097D01*
X0015152Y0017991D01*
X0015050Y0017888D01*
X0014945Y0017787D01*
X0014837Y0017689D01*
X0014727Y0017594D01*
X0014615Y0017502D01*
X0014500Y0017414D01*
X0014382Y0017328D01*
X0014263Y0017245D01*
X0014141Y0017166D01*
X0014017Y0017090D01*
X0013891Y0017017D01*
X0013764Y0016948D01*
X0013634Y0016882D01*
X0013503Y0016820D01*
X0013370Y0016761D01*
X0013235Y0016706D01*
X0013099Y0016654D01*
X0012962Y0016607D01*
X0012824Y0016562D01*
X0012684Y0016522D01*
X0012543Y0016485D01*
X0012402Y0016452D01*
X0012259Y0016423D01*
X0012116Y0016398D01*
X0011973Y0016377D01*
X0011828Y0016359D01*
X0011684Y0016346D01*
X0011539Y0016336D01*
X0011393Y0016330D01*
X0011248Y0016328D01*
X0007311Y0016328D01*
X0007311Y0010025D01*
X0219529Y0012741D02*
X0219787Y0012903D01*
X0220049Y0013059D01*
X0220315Y0013209D01*
X0220584Y0013352D01*
X0220857Y0013488D01*
X0221133Y0013618D01*
X0221412Y0013741D01*
X0221695Y0013857D01*
X0221979Y0013966D01*
X0222267Y0014069D01*
X0222557Y0014164D01*
X0222849Y0014252D01*
X0223143Y0014333D01*
X0223439Y0014407D01*
X0223737Y0014473D01*
X0224036Y0014532D01*
X0224336Y0014584D01*
X0224638Y0014629D01*
X0224941Y0014666D01*
X0225245Y0014695D01*
X0225549Y0014718D01*
X0225854Y0014733D01*
X0226158Y0014740D01*
X0226464Y0014740D01*
X0226768Y0014733D01*
X0227073Y0014718D01*
X0227377Y0014695D01*
X0227681Y0014666D01*
X0227984Y0014629D01*
X0228286Y0014584D01*
X0228586Y0014532D01*
X0228885Y0014473D01*
X0229183Y0014407D01*
X0229479Y0014333D01*
X0229773Y0014252D01*
X0230065Y0014164D01*
X0230355Y0014069D01*
X0230643Y0013966D01*
X0230927Y0013857D01*
X0231210Y0013741D01*
X0231489Y0013618D01*
X0231765Y0013488D01*
X0232038Y0013352D01*
X0232307Y0013209D01*
X0232573Y0013059D01*
X0232835Y0012903D01*
X0233093Y0012741D01*
D11*
X0064573Y0069853D02*
X0064346Y0069427D01*
X0064040Y0069055D01*
X0063667Y0068749D01*
X0063242Y0068521D01*
X0062780Y0068381D01*
X0062300Y0068334D01*
X0061820Y0068381D01*
X0061358Y0068521D01*
X0060933Y0068749D01*
X0060560Y0069055D01*
X0060254Y0069427D01*
X0060027Y0069853D01*
X0059887Y0070314D01*
X0059839Y0070794D01*
X0059839Y0076700D01*
X0059839Y0082606D01*
X0059887Y0083086D01*
X0060027Y0083547D01*
X0060254Y0083973D01*
X0060560Y0084345D01*
X0060933Y0084651D01*
X0061358Y0084879D01*
X0061820Y0085019D01*
X0062300Y0085066D01*
X0062780Y0085019D01*
X0063242Y0084879D01*
X0063667Y0084651D01*
X0064040Y0084345D01*
X0064346Y0083973D01*
X0064573Y0083547D01*
X0064713Y0083086D01*
X0064761Y0082606D01*
X0064761Y0070794D01*
X0064713Y0070314D01*
X0064573Y0069853D01*
X0064590Y0069907D02*
X0060010Y0069907D01*
X0059878Y0070397D02*
X0064722Y0070397D01*
X0064761Y0070888D02*
X0059839Y0070888D01*
X0059839Y0071379D02*
X0064761Y0071379D01*
X0064761Y0071869D02*
X0059839Y0071869D01*
X0059839Y0072360D02*
X0064761Y0072360D01*
X0064761Y0072851D02*
X0059839Y0072851D01*
X0059839Y0073341D02*
X0064761Y0073341D01*
X0064761Y0073832D02*
X0059839Y0073832D01*
X0059839Y0074323D02*
X0064761Y0074323D01*
X0064761Y0074813D02*
X0059839Y0074813D01*
X0059839Y0075304D02*
X0064761Y0075304D01*
X0064761Y0075794D02*
X0059839Y0075794D01*
X0059839Y0076285D02*
X0064761Y0076285D01*
X0064761Y0076776D02*
X0059839Y0076776D01*
X0059839Y0077266D02*
X0064761Y0077266D01*
X0064761Y0077757D02*
X0059839Y0077757D01*
X0059839Y0078248D02*
X0064761Y0078248D01*
X0064761Y0078738D02*
X0059839Y0078738D01*
X0059839Y0079229D02*
X0064761Y0079229D01*
X0064761Y0079720D02*
X0059839Y0079720D01*
X0059839Y0080210D02*
X0064761Y0080210D01*
X0064761Y0080701D02*
X0059839Y0080701D01*
X0059839Y0081191D02*
X0064761Y0081191D01*
X0064761Y0081682D02*
X0059839Y0081682D01*
X0059839Y0082173D02*
X0064761Y0082173D01*
X0064755Y0082663D02*
X0059845Y0082663D01*
X0059907Y0083154D02*
X0064693Y0083154D01*
X0064521Y0083645D02*
X0060079Y0083645D01*
X0060388Y0084135D02*
X0064212Y0084135D01*
X0063698Y0084626D02*
X0060902Y0084626D01*
X0060263Y0069416D02*
X0064337Y0069416D01*
X0063883Y0068925D02*
X0060717Y0068925D01*
X0061643Y0068435D02*
X0062957Y0068435D01*
X0062300Y0124434D02*
X0061820Y0124481D01*
X0061358Y0124621D01*
X0060933Y0124849D01*
X0060560Y0125155D01*
X0060254Y0125527D01*
X0060027Y0125953D01*
X0059887Y0126414D01*
X0059839Y0126894D01*
X0059839Y0132800D01*
X0059839Y0138706D01*
X0059887Y0139186D01*
X0060027Y0139647D01*
X0060254Y0140073D01*
X0060560Y0140445D01*
X0060933Y0140751D01*
X0061358Y0140979D01*
X0061820Y0141119D01*
X0062300Y0141166D01*
X0062780Y0141119D01*
X0063242Y0140979D01*
X0063667Y0140751D01*
X0064040Y0140445D01*
X0064346Y0140073D01*
X0064573Y0139647D01*
X0064713Y0139186D01*
X0064761Y0138706D01*
X0064761Y0126894D01*
X0064713Y0126414D01*
X0064573Y0125953D01*
X0064346Y0125527D01*
X0064040Y0125155D01*
X0063667Y0124849D01*
X0063242Y0124621D01*
X0062780Y0124481D01*
X0062300Y0124434D01*
X0060921Y0124858D02*
X0063679Y0124858D01*
X0064199Y0125349D02*
X0060401Y0125349D01*
X0060087Y0125839D02*
X0064513Y0125839D01*
X0064688Y0126330D02*
X0059912Y0126330D01*
X0059847Y0126821D02*
X0064753Y0126821D01*
X0064761Y0127311D02*
X0059839Y0127311D01*
X0059839Y0127802D02*
X0064761Y0127802D01*
X0064761Y0128293D02*
X0059839Y0128293D01*
X0059839Y0128783D02*
X0064761Y0128783D01*
X0064761Y0129274D02*
X0059839Y0129274D01*
X0059839Y0129765D02*
X0064761Y0129765D01*
X0064761Y0130255D02*
X0059839Y0130255D01*
X0059839Y0130746D02*
X0064761Y0130746D01*
X0064761Y0131236D02*
X0059839Y0131236D01*
X0059839Y0131727D02*
X0064761Y0131727D01*
X0064761Y0132218D02*
X0059839Y0132218D01*
X0059839Y0132708D02*
X0064761Y0132708D01*
X0064761Y0133199D02*
X0059839Y0133199D01*
X0059839Y0133690D02*
X0064761Y0133690D01*
X0064761Y0134180D02*
X0059839Y0134180D01*
X0059839Y0134671D02*
X0064761Y0134671D01*
X0064761Y0135162D02*
X0059839Y0135162D01*
X0059839Y0135652D02*
X0064761Y0135652D01*
X0064761Y0136143D02*
X0059839Y0136143D01*
X0059839Y0136633D02*
X0064761Y0136633D01*
X0064761Y0137124D02*
X0059839Y0137124D01*
X0059839Y0137615D02*
X0064761Y0137615D01*
X0064761Y0138105D02*
X0059839Y0138105D01*
X0059839Y0138596D02*
X0064761Y0138596D01*
X0064723Y0139087D02*
X0059877Y0139087D01*
X0060005Y0139577D02*
X0064595Y0139577D01*
X0064348Y0140068D02*
X0060252Y0140068D01*
X0060698Y0140559D02*
X0063902Y0140559D01*
X0063010Y0141049D02*
X0061590Y0141049D01*
D12*
X0097150Y0087883D03*
X0097150Y0085914D03*
X0097150Y0083946D03*
X0097150Y0081977D03*
X0097150Y0080009D03*
X0097150Y0078040D03*
X0097150Y0076072D03*
X0097150Y0074103D03*
X0097150Y0072135D03*
X0097150Y0070166D03*
X0097150Y0068198D03*
X0097150Y0066229D03*
X0097150Y0064261D03*
X0097150Y0062292D03*
X0097150Y0060324D03*
X0112898Y0060324D03*
X0112898Y0062292D03*
X0112898Y0064261D03*
X0112898Y0066229D03*
X0112898Y0068198D03*
X0112898Y0070166D03*
X0112898Y0072135D03*
X0112898Y0074103D03*
X0112898Y0076072D03*
X0112898Y0078040D03*
X0112898Y0080009D03*
X0112898Y0081977D03*
X0112898Y0083946D03*
X0112898Y0085914D03*
X0112898Y0087883D03*
D13*
X0191074Y0124503D03*
X0103774Y0029503D03*
D14*
X0222303Y0097732D03*
X0228209Y0097732D03*
X0228209Y0109937D03*
X0222303Y0109937D03*
D15*
X0222700Y0090333D03*
X0227031Y0090333D03*
X0106735Y0046347D03*
X0102404Y0046347D03*
D16*
X0119700Y0051535D03*
X0119700Y0055865D03*
X0125300Y0055865D03*
X0125300Y0051535D03*
X0214867Y0105500D03*
X0214867Y0109831D03*
X0234933Y0101100D03*
X0234933Y0096769D03*
X0231043Y0127613D03*
X0231043Y0131944D03*
D17*
X0236136Y0132547D03*
X0236136Y0130579D03*
X0236136Y0128610D03*
X0240073Y0128610D03*
X0240073Y0130579D03*
X0240073Y0132547D03*
D18*
X0265831Y0138906D03*
X0275831Y0138906D03*
X0276831Y0128906D03*
X0266831Y0128906D03*
X0265831Y0118906D03*
X0275831Y0118906D03*
X0276831Y0108906D03*
X0266831Y0108906D03*
X0265831Y0098906D03*
X0275831Y0098906D03*
X0276831Y0088906D03*
X0266831Y0088906D03*
X0265831Y0078906D03*
X0275831Y0078906D03*
X0276831Y0068906D03*
X0266831Y0068906D03*
X0265831Y0058906D03*
X0275831Y0058906D03*
X0276831Y0148906D03*
X0266831Y0148906D03*
D19*
X0069434Y0110162D03*
X0069434Y0098762D03*
D20*
X0030200Y0068900D03*
X0025200Y0068900D03*
X0025200Y0063900D03*
X0025200Y0058900D03*
X0030200Y0058900D03*
X0030200Y0063900D03*
X0030200Y0053900D03*
X0030200Y0048900D03*
X0025200Y0048900D03*
X0025200Y0053900D03*
D21*
X0013025Y0051400D02*
X0013027Y0051537D01*
X0013033Y0051673D01*
X0013043Y0051809D01*
X0013057Y0051945D01*
X0013075Y0052081D01*
X0013097Y0052216D01*
X0013122Y0052350D01*
X0013152Y0052483D01*
X0013186Y0052615D01*
X0013223Y0052747D01*
X0013264Y0052877D01*
X0013310Y0053006D01*
X0013358Y0053134D01*
X0013411Y0053260D01*
X0013467Y0053384D01*
X0013527Y0053507D01*
X0013590Y0053628D01*
X0013657Y0053747D01*
X0013727Y0053864D01*
X0013801Y0053980D01*
X0013878Y0054092D01*
X0013958Y0054203D01*
X0014042Y0054311D01*
X0014129Y0054417D01*
X0014218Y0054520D01*
X0014311Y0054620D01*
X0014406Y0054718D01*
X0014505Y0054813D01*
X0014606Y0054905D01*
X0014710Y0054993D01*
X0014816Y0055079D01*
X0014925Y0055162D01*
X0015036Y0055241D01*
X0015149Y0055318D01*
X0015265Y0055391D01*
X0015382Y0055460D01*
X0015502Y0055526D01*
X0015623Y0055588D01*
X0015747Y0055647D01*
X0015872Y0055703D01*
X0015998Y0055754D01*
X0016126Y0055802D01*
X0016255Y0055846D01*
X0016386Y0055887D01*
X0016518Y0055923D01*
X0016650Y0055956D01*
X0016784Y0055984D01*
X0016918Y0056009D01*
X0017053Y0056030D01*
X0017189Y0056047D01*
X0017325Y0056060D01*
X0017461Y0056069D01*
X0017598Y0056074D01*
X0017734Y0056075D01*
X0017871Y0056072D01*
X0018007Y0056065D01*
X0018143Y0056054D01*
X0018279Y0056039D01*
X0018414Y0056020D01*
X0018549Y0055997D01*
X0018683Y0055970D01*
X0018816Y0055940D01*
X0018948Y0055905D01*
X0019080Y0055867D01*
X0019209Y0055825D01*
X0019338Y0055779D01*
X0019465Y0055729D01*
X0019591Y0055675D01*
X0019715Y0055618D01*
X0019838Y0055558D01*
X0019958Y0055493D01*
X0020077Y0055426D01*
X0020193Y0055355D01*
X0020308Y0055280D01*
X0020420Y0055202D01*
X0020530Y0055121D01*
X0020638Y0055037D01*
X0020743Y0054949D01*
X0020845Y0054859D01*
X0020945Y0054766D01*
X0021042Y0054669D01*
X0021136Y0054570D01*
X0021227Y0054469D01*
X0021315Y0054364D01*
X0021400Y0054257D01*
X0021482Y0054148D01*
X0021561Y0054036D01*
X0021636Y0053922D01*
X0021708Y0053806D01*
X0021777Y0053688D01*
X0021842Y0053568D01*
X0021904Y0053446D01*
X0021962Y0053322D01*
X0022016Y0053197D01*
X0022067Y0053070D01*
X0022113Y0052942D01*
X0022157Y0052812D01*
X0022196Y0052681D01*
X0022232Y0052549D01*
X0022263Y0052416D01*
X0022291Y0052283D01*
X0022315Y0052148D01*
X0022335Y0052013D01*
X0022351Y0051877D01*
X0022363Y0051741D01*
X0022371Y0051605D01*
X0022375Y0051468D01*
X0022375Y0051332D01*
X0022371Y0051195D01*
X0022363Y0051059D01*
X0022351Y0050923D01*
X0022335Y0050787D01*
X0022315Y0050652D01*
X0022291Y0050517D01*
X0022263Y0050384D01*
X0022232Y0050251D01*
X0022196Y0050119D01*
X0022157Y0049988D01*
X0022113Y0049858D01*
X0022067Y0049730D01*
X0022016Y0049603D01*
X0021962Y0049478D01*
X0021904Y0049354D01*
X0021842Y0049232D01*
X0021777Y0049112D01*
X0021708Y0048994D01*
X0021636Y0048878D01*
X0021561Y0048764D01*
X0021482Y0048652D01*
X0021400Y0048543D01*
X0021315Y0048436D01*
X0021227Y0048331D01*
X0021136Y0048230D01*
X0021042Y0048131D01*
X0020945Y0048034D01*
X0020845Y0047941D01*
X0020743Y0047851D01*
X0020638Y0047763D01*
X0020530Y0047679D01*
X0020420Y0047598D01*
X0020308Y0047520D01*
X0020193Y0047445D01*
X0020077Y0047374D01*
X0019958Y0047307D01*
X0019838Y0047242D01*
X0019715Y0047182D01*
X0019591Y0047125D01*
X0019465Y0047071D01*
X0019338Y0047021D01*
X0019209Y0046975D01*
X0019080Y0046933D01*
X0018948Y0046895D01*
X0018816Y0046860D01*
X0018683Y0046830D01*
X0018549Y0046803D01*
X0018414Y0046780D01*
X0018279Y0046761D01*
X0018143Y0046746D01*
X0018007Y0046735D01*
X0017871Y0046728D01*
X0017734Y0046725D01*
X0017598Y0046726D01*
X0017461Y0046731D01*
X0017325Y0046740D01*
X0017189Y0046753D01*
X0017053Y0046770D01*
X0016918Y0046791D01*
X0016784Y0046816D01*
X0016650Y0046844D01*
X0016518Y0046877D01*
X0016386Y0046913D01*
X0016255Y0046954D01*
X0016126Y0046998D01*
X0015998Y0047046D01*
X0015872Y0047097D01*
X0015747Y0047153D01*
X0015623Y0047212D01*
X0015502Y0047274D01*
X0015382Y0047340D01*
X0015265Y0047409D01*
X0015149Y0047482D01*
X0015036Y0047559D01*
X0014925Y0047638D01*
X0014816Y0047721D01*
X0014710Y0047807D01*
X0014606Y0047895D01*
X0014505Y0047987D01*
X0014406Y0048082D01*
X0014311Y0048180D01*
X0014218Y0048280D01*
X0014129Y0048383D01*
X0014042Y0048489D01*
X0013958Y0048597D01*
X0013878Y0048708D01*
X0013801Y0048820D01*
X0013727Y0048936D01*
X0013657Y0049053D01*
X0013590Y0049172D01*
X0013527Y0049293D01*
X0013467Y0049416D01*
X0013411Y0049540D01*
X0013358Y0049666D01*
X0013310Y0049794D01*
X0013264Y0049923D01*
X0013223Y0050053D01*
X0013186Y0050185D01*
X0013152Y0050317D01*
X0013122Y0050450D01*
X0013097Y0050584D01*
X0013075Y0050719D01*
X0013057Y0050855D01*
X0013043Y0050991D01*
X0013033Y0051127D01*
X0013027Y0051263D01*
X0013025Y0051400D01*
X0021750Y0043900D02*
X0021752Y0043988D01*
X0021758Y0044076D01*
X0021768Y0044164D01*
X0021782Y0044251D01*
X0021800Y0044337D01*
X0021821Y0044422D01*
X0021847Y0044507D01*
X0021876Y0044590D01*
X0021909Y0044672D01*
X0021946Y0044752D01*
X0021986Y0044830D01*
X0022030Y0044907D01*
X0022077Y0044981D01*
X0022128Y0045053D01*
X0022181Y0045123D01*
X0022238Y0045191D01*
X0022298Y0045255D01*
X0022361Y0045317D01*
X0022426Y0045376D01*
X0022494Y0045432D01*
X0022565Y0045485D01*
X0022637Y0045535D01*
X0022712Y0045581D01*
X0022789Y0045624D01*
X0022868Y0045664D01*
X0022949Y0045699D01*
X0023031Y0045732D01*
X0023114Y0045760D01*
X0023199Y0045785D01*
X0023285Y0045805D01*
X0023371Y0045822D01*
X0023458Y0045835D01*
X0023546Y0045844D01*
X0023634Y0045849D01*
X0023722Y0045850D01*
X0023810Y0045847D01*
X0023898Y0045840D01*
X0023985Y0045829D01*
X0024072Y0045814D01*
X0024158Y0045795D01*
X0024244Y0045773D01*
X0024328Y0045746D01*
X0024410Y0045716D01*
X0024492Y0045682D01*
X0024572Y0045644D01*
X0024649Y0045603D01*
X0024725Y0045559D01*
X0024799Y0045511D01*
X0024871Y0045459D01*
X0024940Y0045405D01*
X0025007Y0045347D01*
X0025071Y0045287D01*
X0025132Y0045223D01*
X0025191Y0045157D01*
X0025246Y0045089D01*
X0025298Y0045017D01*
X0025347Y0044944D01*
X0025392Y0044869D01*
X0025434Y0044791D01*
X0025473Y0044712D01*
X0025508Y0044631D01*
X0025539Y0044548D01*
X0025566Y0044465D01*
X0025590Y0044380D01*
X0025610Y0044294D01*
X0025626Y0044207D01*
X0025638Y0044120D01*
X0025646Y0044032D01*
X0025650Y0043944D01*
X0025650Y0043856D01*
X0025646Y0043768D01*
X0025638Y0043680D01*
X0025626Y0043593D01*
X0025610Y0043506D01*
X0025590Y0043420D01*
X0025566Y0043335D01*
X0025539Y0043252D01*
X0025508Y0043169D01*
X0025473Y0043088D01*
X0025434Y0043009D01*
X0025392Y0042931D01*
X0025347Y0042856D01*
X0025298Y0042783D01*
X0025246Y0042711D01*
X0025191Y0042643D01*
X0025132Y0042577D01*
X0025071Y0042513D01*
X0025007Y0042453D01*
X0024940Y0042395D01*
X0024871Y0042341D01*
X0024799Y0042289D01*
X0024725Y0042241D01*
X0024649Y0042197D01*
X0024572Y0042156D01*
X0024492Y0042118D01*
X0024410Y0042084D01*
X0024328Y0042054D01*
X0024244Y0042027D01*
X0024158Y0042005D01*
X0024072Y0041986D01*
X0023985Y0041971D01*
X0023898Y0041960D01*
X0023810Y0041953D01*
X0023722Y0041950D01*
X0023634Y0041951D01*
X0023546Y0041956D01*
X0023458Y0041965D01*
X0023371Y0041978D01*
X0023285Y0041995D01*
X0023199Y0042015D01*
X0023114Y0042040D01*
X0023031Y0042068D01*
X0022949Y0042101D01*
X0022868Y0042136D01*
X0022789Y0042176D01*
X0022712Y0042219D01*
X0022637Y0042265D01*
X0022565Y0042315D01*
X0022494Y0042368D01*
X0022426Y0042424D01*
X0022361Y0042483D01*
X0022298Y0042545D01*
X0022238Y0042609D01*
X0022181Y0042677D01*
X0022128Y0042747D01*
X0022077Y0042819D01*
X0022030Y0042893D01*
X0021986Y0042970D01*
X0021946Y0043048D01*
X0021909Y0043128D01*
X0021876Y0043210D01*
X0021847Y0043293D01*
X0021821Y0043378D01*
X0021800Y0043463D01*
X0021782Y0043549D01*
X0021768Y0043636D01*
X0021758Y0043724D01*
X0021752Y0043812D01*
X0021750Y0043900D01*
X0029750Y0043900D02*
X0029752Y0043988D01*
X0029758Y0044076D01*
X0029768Y0044164D01*
X0029782Y0044251D01*
X0029800Y0044337D01*
X0029821Y0044422D01*
X0029847Y0044507D01*
X0029876Y0044590D01*
X0029909Y0044672D01*
X0029946Y0044752D01*
X0029986Y0044830D01*
X0030030Y0044907D01*
X0030077Y0044981D01*
X0030128Y0045053D01*
X0030181Y0045123D01*
X0030238Y0045191D01*
X0030298Y0045255D01*
X0030361Y0045317D01*
X0030426Y0045376D01*
X0030494Y0045432D01*
X0030565Y0045485D01*
X0030637Y0045535D01*
X0030712Y0045581D01*
X0030789Y0045624D01*
X0030868Y0045664D01*
X0030949Y0045699D01*
X0031031Y0045732D01*
X0031114Y0045760D01*
X0031199Y0045785D01*
X0031285Y0045805D01*
X0031371Y0045822D01*
X0031458Y0045835D01*
X0031546Y0045844D01*
X0031634Y0045849D01*
X0031722Y0045850D01*
X0031810Y0045847D01*
X0031898Y0045840D01*
X0031985Y0045829D01*
X0032072Y0045814D01*
X0032158Y0045795D01*
X0032244Y0045773D01*
X0032328Y0045746D01*
X0032410Y0045716D01*
X0032492Y0045682D01*
X0032572Y0045644D01*
X0032649Y0045603D01*
X0032725Y0045559D01*
X0032799Y0045511D01*
X0032871Y0045459D01*
X0032940Y0045405D01*
X0033007Y0045347D01*
X0033071Y0045287D01*
X0033132Y0045223D01*
X0033191Y0045157D01*
X0033246Y0045089D01*
X0033298Y0045017D01*
X0033347Y0044944D01*
X0033392Y0044869D01*
X0033434Y0044791D01*
X0033473Y0044712D01*
X0033508Y0044631D01*
X0033539Y0044548D01*
X0033566Y0044465D01*
X0033590Y0044380D01*
X0033610Y0044294D01*
X0033626Y0044207D01*
X0033638Y0044120D01*
X0033646Y0044032D01*
X0033650Y0043944D01*
X0033650Y0043856D01*
X0033646Y0043768D01*
X0033638Y0043680D01*
X0033626Y0043593D01*
X0033610Y0043506D01*
X0033590Y0043420D01*
X0033566Y0043335D01*
X0033539Y0043252D01*
X0033508Y0043169D01*
X0033473Y0043088D01*
X0033434Y0043009D01*
X0033392Y0042931D01*
X0033347Y0042856D01*
X0033298Y0042783D01*
X0033246Y0042711D01*
X0033191Y0042643D01*
X0033132Y0042577D01*
X0033071Y0042513D01*
X0033007Y0042453D01*
X0032940Y0042395D01*
X0032871Y0042341D01*
X0032799Y0042289D01*
X0032725Y0042241D01*
X0032649Y0042197D01*
X0032572Y0042156D01*
X0032492Y0042118D01*
X0032410Y0042084D01*
X0032328Y0042054D01*
X0032244Y0042027D01*
X0032158Y0042005D01*
X0032072Y0041986D01*
X0031985Y0041971D01*
X0031898Y0041960D01*
X0031810Y0041953D01*
X0031722Y0041950D01*
X0031634Y0041951D01*
X0031546Y0041956D01*
X0031458Y0041965D01*
X0031371Y0041978D01*
X0031285Y0041995D01*
X0031199Y0042015D01*
X0031114Y0042040D01*
X0031031Y0042068D01*
X0030949Y0042101D01*
X0030868Y0042136D01*
X0030789Y0042176D01*
X0030712Y0042219D01*
X0030637Y0042265D01*
X0030565Y0042315D01*
X0030494Y0042368D01*
X0030426Y0042424D01*
X0030361Y0042483D01*
X0030298Y0042545D01*
X0030238Y0042609D01*
X0030181Y0042677D01*
X0030128Y0042747D01*
X0030077Y0042819D01*
X0030030Y0042893D01*
X0029986Y0042970D01*
X0029946Y0043048D01*
X0029909Y0043128D01*
X0029876Y0043210D01*
X0029847Y0043293D01*
X0029821Y0043378D01*
X0029800Y0043463D01*
X0029782Y0043549D01*
X0029768Y0043636D01*
X0029758Y0043724D01*
X0029752Y0043812D01*
X0029750Y0043900D01*
X0033025Y0051400D02*
X0033027Y0051537D01*
X0033033Y0051673D01*
X0033043Y0051809D01*
X0033057Y0051945D01*
X0033075Y0052081D01*
X0033097Y0052216D01*
X0033122Y0052350D01*
X0033152Y0052483D01*
X0033186Y0052615D01*
X0033223Y0052747D01*
X0033264Y0052877D01*
X0033310Y0053006D01*
X0033358Y0053134D01*
X0033411Y0053260D01*
X0033467Y0053384D01*
X0033527Y0053507D01*
X0033590Y0053628D01*
X0033657Y0053747D01*
X0033727Y0053864D01*
X0033801Y0053980D01*
X0033878Y0054092D01*
X0033958Y0054203D01*
X0034042Y0054311D01*
X0034129Y0054417D01*
X0034218Y0054520D01*
X0034311Y0054620D01*
X0034406Y0054718D01*
X0034505Y0054813D01*
X0034606Y0054905D01*
X0034710Y0054993D01*
X0034816Y0055079D01*
X0034925Y0055162D01*
X0035036Y0055241D01*
X0035149Y0055318D01*
X0035265Y0055391D01*
X0035382Y0055460D01*
X0035502Y0055526D01*
X0035623Y0055588D01*
X0035747Y0055647D01*
X0035872Y0055703D01*
X0035998Y0055754D01*
X0036126Y0055802D01*
X0036255Y0055846D01*
X0036386Y0055887D01*
X0036518Y0055923D01*
X0036650Y0055956D01*
X0036784Y0055984D01*
X0036918Y0056009D01*
X0037053Y0056030D01*
X0037189Y0056047D01*
X0037325Y0056060D01*
X0037461Y0056069D01*
X0037598Y0056074D01*
X0037734Y0056075D01*
X0037871Y0056072D01*
X0038007Y0056065D01*
X0038143Y0056054D01*
X0038279Y0056039D01*
X0038414Y0056020D01*
X0038549Y0055997D01*
X0038683Y0055970D01*
X0038816Y0055940D01*
X0038948Y0055905D01*
X0039080Y0055867D01*
X0039209Y0055825D01*
X0039338Y0055779D01*
X0039465Y0055729D01*
X0039591Y0055675D01*
X0039715Y0055618D01*
X0039838Y0055558D01*
X0039958Y0055493D01*
X0040077Y0055426D01*
X0040193Y0055355D01*
X0040308Y0055280D01*
X0040420Y0055202D01*
X0040530Y0055121D01*
X0040638Y0055037D01*
X0040743Y0054949D01*
X0040845Y0054859D01*
X0040945Y0054766D01*
X0041042Y0054669D01*
X0041136Y0054570D01*
X0041227Y0054469D01*
X0041315Y0054364D01*
X0041400Y0054257D01*
X0041482Y0054148D01*
X0041561Y0054036D01*
X0041636Y0053922D01*
X0041708Y0053806D01*
X0041777Y0053688D01*
X0041842Y0053568D01*
X0041904Y0053446D01*
X0041962Y0053322D01*
X0042016Y0053197D01*
X0042067Y0053070D01*
X0042113Y0052942D01*
X0042157Y0052812D01*
X0042196Y0052681D01*
X0042232Y0052549D01*
X0042263Y0052416D01*
X0042291Y0052283D01*
X0042315Y0052148D01*
X0042335Y0052013D01*
X0042351Y0051877D01*
X0042363Y0051741D01*
X0042371Y0051605D01*
X0042375Y0051468D01*
X0042375Y0051332D01*
X0042371Y0051195D01*
X0042363Y0051059D01*
X0042351Y0050923D01*
X0042335Y0050787D01*
X0042315Y0050652D01*
X0042291Y0050517D01*
X0042263Y0050384D01*
X0042232Y0050251D01*
X0042196Y0050119D01*
X0042157Y0049988D01*
X0042113Y0049858D01*
X0042067Y0049730D01*
X0042016Y0049603D01*
X0041962Y0049478D01*
X0041904Y0049354D01*
X0041842Y0049232D01*
X0041777Y0049112D01*
X0041708Y0048994D01*
X0041636Y0048878D01*
X0041561Y0048764D01*
X0041482Y0048652D01*
X0041400Y0048543D01*
X0041315Y0048436D01*
X0041227Y0048331D01*
X0041136Y0048230D01*
X0041042Y0048131D01*
X0040945Y0048034D01*
X0040845Y0047941D01*
X0040743Y0047851D01*
X0040638Y0047763D01*
X0040530Y0047679D01*
X0040420Y0047598D01*
X0040308Y0047520D01*
X0040193Y0047445D01*
X0040077Y0047374D01*
X0039958Y0047307D01*
X0039838Y0047242D01*
X0039715Y0047182D01*
X0039591Y0047125D01*
X0039465Y0047071D01*
X0039338Y0047021D01*
X0039209Y0046975D01*
X0039080Y0046933D01*
X0038948Y0046895D01*
X0038816Y0046860D01*
X0038683Y0046830D01*
X0038549Y0046803D01*
X0038414Y0046780D01*
X0038279Y0046761D01*
X0038143Y0046746D01*
X0038007Y0046735D01*
X0037871Y0046728D01*
X0037734Y0046725D01*
X0037598Y0046726D01*
X0037461Y0046731D01*
X0037325Y0046740D01*
X0037189Y0046753D01*
X0037053Y0046770D01*
X0036918Y0046791D01*
X0036784Y0046816D01*
X0036650Y0046844D01*
X0036518Y0046877D01*
X0036386Y0046913D01*
X0036255Y0046954D01*
X0036126Y0046998D01*
X0035998Y0047046D01*
X0035872Y0047097D01*
X0035747Y0047153D01*
X0035623Y0047212D01*
X0035502Y0047274D01*
X0035382Y0047340D01*
X0035265Y0047409D01*
X0035149Y0047482D01*
X0035036Y0047559D01*
X0034925Y0047638D01*
X0034816Y0047721D01*
X0034710Y0047807D01*
X0034606Y0047895D01*
X0034505Y0047987D01*
X0034406Y0048082D01*
X0034311Y0048180D01*
X0034218Y0048280D01*
X0034129Y0048383D01*
X0034042Y0048489D01*
X0033958Y0048597D01*
X0033878Y0048708D01*
X0033801Y0048820D01*
X0033727Y0048936D01*
X0033657Y0049053D01*
X0033590Y0049172D01*
X0033527Y0049293D01*
X0033467Y0049416D01*
X0033411Y0049540D01*
X0033358Y0049666D01*
X0033310Y0049794D01*
X0033264Y0049923D01*
X0033223Y0050053D01*
X0033186Y0050185D01*
X0033152Y0050317D01*
X0033122Y0050450D01*
X0033097Y0050584D01*
X0033075Y0050719D01*
X0033057Y0050855D01*
X0033043Y0050991D01*
X0033033Y0051127D01*
X0033027Y0051263D01*
X0033025Y0051400D01*
X0033025Y0073900D02*
X0033027Y0074037D01*
X0033033Y0074173D01*
X0033043Y0074309D01*
X0033057Y0074445D01*
X0033075Y0074581D01*
X0033097Y0074716D01*
X0033122Y0074850D01*
X0033152Y0074983D01*
X0033186Y0075115D01*
X0033223Y0075247D01*
X0033264Y0075377D01*
X0033310Y0075506D01*
X0033358Y0075634D01*
X0033411Y0075760D01*
X0033467Y0075884D01*
X0033527Y0076007D01*
X0033590Y0076128D01*
X0033657Y0076247D01*
X0033727Y0076364D01*
X0033801Y0076480D01*
X0033878Y0076592D01*
X0033958Y0076703D01*
X0034042Y0076811D01*
X0034129Y0076917D01*
X0034218Y0077020D01*
X0034311Y0077120D01*
X0034406Y0077218D01*
X0034505Y0077313D01*
X0034606Y0077405D01*
X0034710Y0077493D01*
X0034816Y0077579D01*
X0034925Y0077662D01*
X0035036Y0077741D01*
X0035149Y0077818D01*
X0035265Y0077891D01*
X0035382Y0077960D01*
X0035502Y0078026D01*
X0035623Y0078088D01*
X0035747Y0078147D01*
X0035872Y0078203D01*
X0035998Y0078254D01*
X0036126Y0078302D01*
X0036255Y0078346D01*
X0036386Y0078387D01*
X0036518Y0078423D01*
X0036650Y0078456D01*
X0036784Y0078484D01*
X0036918Y0078509D01*
X0037053Y0078530D01*
X0037189Y0078547D01*
X0037325Y0078560D01*
X0037461Y0078569D01*
X0037598Y0078574D01*
X0037734Y0078575D01*
X0037871Y0078572D01*
X0038007Y0078565D01*
X0038143Y0078554D01*
X0038279Y0078539D01*
X0038414Y0078520D01*
X0038549Y0078497D01*
X0038683Y0078470D01*
X0038816Y0078440D01*
X0038948Y0078405D01*
X0039080Y0078367D01*
X0039209Y0078325D01*
X0039338Y0078279D01*
X0039465Y0078229D01*
X0039591Y0078175D01*
X0039715Y0078118D01*
X0039838Y0078058D01*
X0039958Y0077993D01*
X0040077Y0077926D01*
X0040193Y0077855D01*
X0040308Y0077780D01*
X0040420Y0077702D01*
X0040530Y0077621D01*
X0040638Y0077537D01*
X0040743Y0077449D01*
X0040845Y0077359D01*
X0040945Y0077266D01*
X0041042Y0077169D01*
X0041136Y0077070D01*
X0041227Y0076969D01*
X0041315Y0076864D01*
X0041400Y0076757D01*
X0041482Y0076648D01*
X0041561Y0076536D01*
X0041636Y0076422D01*
X0041708Y0076306D01*
X0041777Y0076188D01*
X0041842Y0076068D01*
X0041904Y0075946D01*
X0041962Y0075822D01*
X0042016Y0075697D01*
X0042067Y0075570D01*
X0042113Y0075442D01*
X0042157Y0075312D01*
X0042196Y0075181D01*
X0042232Y0075049D01*
X0042263Y0074916D01*
X0042291Y0074783D01*
X0042315Y0074648D01*
X0042335Y0074513D01*
X0042351Y0074377D01*
X0042363Y0074241D01*
X0042371Y0074105D01*
X0042375Y0073968D01*
X0042375Y0073832D01*
X0042371Y0073695D01*
X0042363Y0073559D01*
X0042351Y0073423D01*
X0042335Y0073287D01*
X0042315Y0073152D01*
X0042291Y0073017D01*
X0042263Y0072884D01*
X0042232Y0072751D01*
X0042196Y0072619D01*
X0042157Y0072488D01*
X0042113Y0072358D01*
X0042067Y0072230D01*
X0042016Y0072103D01*
X0041962Y0071978D01*
X0041904Y0071854D01*
X0041842Y0071732D01*
X0041777Y0071612D01*
X0041708Y0071494D01*
X0041636Y0071378D01*
X0041561Y0071264D01*
X0041482Y0071152D01*
X0041400Y0071043D01*
X0041315Y0070936D01*
X0041227Y0070831D01*
X0041136Y0070730D01*
X0041042Y0070631D01*
X0040945Y0070534D01*
X0040845Y0070441D01*
X0040743Y0070351D01*
X0040638Y0070263D01*
X0040530Y0070179D01*
X0040420Y0070098D01*
X0040308Y0070020D01*
X0040193Y0069945D01*
X0040077Y0069874D01*
X0039958Y0069807D01*
X0039838Y0069742D01*
X0039715Y0069682D01*
X0039591Y0069625D01*
X0039465Y0069571D01*
X0039338Y0069521D01*
X0039209Y0069475D01*
X0039080Y0069433D01*
X0038948Y0069395D01*
X0038816Y0069360D01*
X0038683Y0069330D01*
X0038549Y0069303D01*
X0038414Y0069280D01*
X0038279Y0069261D01*
X0038143Y0069246D01*
X0038007Y0069235D01*
X0037871Y0069228D01*
X0037734Y0069225D01*
X0037598Y0069226D01*
X0037461Y0069231D01*
X0037325Y0069240D01*
X0037189Y0069253D01*
X0037053Y0069270D01*
X0036918Y0069291D01*
X0036784Y0069316D01*
X0036650Y0069344D01*
X0036518Y0069377D01*
X0036386Y0069413D01*
X0036255Y0069454D01*
X0036126Y0069498D01*
X0035998Y0069546D01*
X0035872Y0069597D01*
X0035747Y0069653D01*
X0035623Y0069712D01*
X0035502Y0069774D01*
X0035382Y0069840D01*
X0035265Y0069909D01*
X0035149Y0069982D01*
X0035036Y0070059D01*
X0034925Y0070138D01*
X0034816Y0070221D01*
X0034710Y0070307D01*
X0034606Y0070395D01*
X0034505Y0070487D01*
X0034406Y0070582D01*
X0034311Y0070680D01*
X0034218Y0070780D01*
X0034129Y0070883D01*
X0034042Y0070989D01*
X0033958Y0071097D01*
X0033878Y0071208D01*
X0033801Y0071320D01*
X0033727Y0071436D01*
X0033657Y0071553D01*
X0033590Y0071672D01*
X0033527Y0071793D01*
X0033467Y0071916D01*
X0033411Y0072040D01*
X0033358Y0072166D01*
X0033310Y0072294D01*
X0033264Y0072423D01*
X0033223Y0072553D01*
X0033186Y0072685D01*
X0033152Y0072817D01*
X0033122Y0072950D01*
X0033097Y0073084D01*
X0033075Y0073219D01*
X0033057Y0073355D01*
X0033043Y0073491D01*
X0033033Y0073627D01*
X0033027Y0073763D01*
X0033025Y0073900D01*
X0025750Y0073900D02*
X0025752Y0073988D01*
X0025758Y0074076D01*
X0025768Y0074164D01*
X0025782Y0074251D01*
X0025800Y0074337D01*
X0025821Y0074422D01*
X0025847Y0074507D01*
X0025876Y0074590D01*
X0025909Y0074672D01*
X0025946Y0074752D01*
X0025986Y0074830D01*
X0026030Y0074907D01*
X0026077Y0074981D01*
X0026128Y0075053D01*
X0026181Y0075123D01*
X0026238Y0075191D01*
X0026298Y0075255D01*
X0026361Y0075317D01*
X0026426Y0075376D01*
X0026494Y0075432D01*
X0026565Y0075485D01*
X0026637Y0075535D01*
X0026712Y0075581D01*
X0026789Y0075624D01*
X0026868Y0075664D01*
X0026949Y0075699D01*
X0027031Y0075732D01*
X0027114Y0075760D01*
X0027199Y0075785D01*
X0027285Y0075805D01*
X0027371Y0075822D01*
X0027458Y0075835D01*
X0027546Y0075844D01*
X0027634Y0075849D01*
X0027722Y0075850D01*
X0027810Y0075847D01*
X0027898Y0075840D01*
X0027985Y0075829D01*
X0028072Y0075814D01*
X0028158Y0075795D01*
X0028244Y0075773D01*
X0028328Y0075746D01*
X0028410Y0075716D01*
X0028492Y0075682D01*
X0028572Y0075644D01*
X0028649Y0075603D01*
X0028725Y0075559D01*
X0028799Y0075511D01*
X0028871Y0075459D01*
X0028940Y0075405D01*
X0029007Y0075347D01*
X0029071Y0075287D01*
X0029132Y0075223D01*
X0029191Y0075157D01*
X0029246Y0075089D01*
X0029298Y0075017D01*
X0029347Y0074944D01*
X0029392Y0074869D01*
X0029434Y0074791D01*
X0029473Y0074712D01*
X0029508Y0074631D01*
X0029539Y0074548D01*
X0029566Y0074465D01*
X0029590Y0074380D01*
X0029610Y0074294D01*
X0029626Y0074207D01*
X0029638Y0074120D01*
X0029646Y0074032D01*
X0029650Y0073944D01*
X0029650Y0073856D01*
X0029646Y0073768D01*
X0029638Y0073680D01*
X0029626Y0073593D01*
X0029610Y0073506D01*
X0029590Y0073420D01*
X0029566Y0073335D01*
X0029539Y0073252D01*
X0029508Y0073169D01*
X0029473Y0073088D01*
X0029434Y0073009D01*
X0029392Y0072931D01*
X0029347Y0072856D01*
X0029298Y0072783D01*
X0029246Y0072711D01*
X0029191Y0072643D01*
X0029132Y0072577D01*
X0029071Y0072513D01*
X0029007Y0072453D01*
X0028940Y0072395D01*
X0028871Y0072341D01*
X0028799Y0072289D01*
X0028725Y0072241D01*
X0028649Y0072197D01*
X0028572Y0072156D01*
X0028492Y0072118D01*
X0028410Y0072084D01*
X0028328Y0072054D01*
X0028244Y0072027D01*
X0028158Y0072005D01*
X0028072Y0071986D01*
X0027985Y0071971D01*
X0027898Y0071960D01*
X0027810Y0071953D01*
X0027722Y0071950D01*
X0027634Y0071951D01*
X0027546Y0071956D01*
X0027458Y0071965D01*
X0027371Y0071978D01*
X0027285Y0071995D01*
X0027199Y0072015D01*
X0027114Y0072040D01*
X0027031Y0072068D01*
X0026949Y0072101D01*
X0026868Y0072136D01*
X0026789Y0072176D01*
X0026712Y0072219D01*
X0026637Y0072265D01*
X0026565Y0072315D01*
X0026494Y0072368D01*
X0026426Y0072424D01*
X0026361Y0072483D01*
X0026298Y0072545D01*
X0026238Y0072609D01*
X0026181Y0072677D01*
X0026128Y0072747D01*
X0026077Y0072819D01*
X0026030Y0072893D01*
X0025986Y0072970D01*
X0025946Y0073048D01*
X0025909Y0073128D01*
X0025876Y0073210D01*
X0025847Y0073293D01*
X0025821Y0073378D01*
X0025800Y0073463D01*
X0025782Y0073549D01*
X0025768Y0073636D01*
X0025758Y0073724D01*
X0025752Y0073812D01*
X0025750Y0073900D01*
X0013025Y0073900D02*
X0013027Y0074037D01*
X0013033Y0074173D01*
X0013043Y0074309D01*
X0013057Y0074445D01*
X0013075Y0074581D01*
X0013097Y0074716D01*
X0013122Y0074850D01*
X0013152Y0074983D01*
X0013186Y0075115D01*
X0013223Y0075247D01*
X0013264Y0075377D01*
X0013310Y0075506D01*
X0013358Y0075634D01*
X0013411Y0075760D01*
X0013467Y0075884D01*
X0013527Y0076007D01*
X0013590Y0076128D01*
X0013657Y0076247D01*
X0013727Y0076364D01*
X0013801Y0076480D01*
X0013878Y0076592D01*
X0013958Y0076703D01*
X0014042Y0076811D01*
X0014129Y0076917D01*
X0014218Y0077020D01*
X0014311Y0077120D01*
X0014406Y0077218D01*
X0014505Y0077313D01*
X0014606Y0077405D01*
X0014710Y0077493D01*
X0014816Y0077579D01*
X0014925Y0077662D01*
X0015036Y0077741D01*
X0015149Y0077818D01*
X0015265Y0077891D01*
X0015382Y0077960D01*
X0015502Y0078026D01*
X0015623Y0078088D01*
X0015747Y0078147D01*
X0015872Y0078203D01*
X0015998Y0078254D01*
X0016126Y0078302D01*
X0016255Y0078346D01*
X0016386Y0078387D01*
X0016518Y0078423D01*
X0016650Y0078456D01*
X0016784Y0078484D01*
X0016918Y0078509D01*
X0017053Y0078530D01*
X0017189Y0078547D01*
X0017325Y0078560D01*
X0017461Y0078569D01*
X0017598Y0078574D01*
X0017734Y0078575D01*
X0017871Y0078572D01*
X0018007Y0078565D01*
X0018143Y0078554D01*
X0018279Y0078539D01*
X0018414Y0078520D01*
X0018549Y0078497D01*
X0018683Y0078470D01*
X0018816Y0078440D01*
X0018948Y0078405D01*
X0019080Y0078367D01*
X0019209Y0078325D01*
X0019338Y0078279D01*
X0019465Y0078229D01*
X0019591Y0078175D01*
X0019715Y0078118D01*
X0019838Y0078058D01*
X0019958Y0077993D01*
X0020077Y0077926D01*
X0020193Y0077855D01*
X0020308Y0077780D01*
X0020420Y0077702D01*
X0020530Y0077621D01*
X0020638Y0077537D01*
X0020743Y0077449D01*
X0020845Y0077359D01*
X0020945Y0077266D01*
X0021042Y0077169D01*
X0021136Y0077070D01*
X0021227Y0076969D01*
X0021315Y0076864D01*
X0021400Y0076757D01*
X0021482Y0076648D01*
X0021561Y0076536D01*
X0021636Y0076422D01*
X0021708Y0076306D01*
X0021777Y0076188D01*
X0021842Y0076068D01*
X0021904Y0075946D01*
X0021962Y0075822D01*
X0022016Y0075697D01*
X0022067Y0075570D01*
X0022113Y0075442D01*
X0022157Y0075312D01*
X0022196Y0075181D01*
X0022232Y0075049D01*
X0022263Y0074916D01*
X0022291Y0074783D01*
X0022315Y0074648D01*
X0022335Y0074513D01*
X0022351Y0074377D01*
X0022363Y0074241D01*
X0022371Y0074105D01*
X0022375Y0073968D01*
X0022375Y0073832D01*
X0022371Y0073695D01*
X0022363Y0073559D01*
X0022351Y0073423D01*
X0022335Y0073287D01*
X0022315Y0073152D01*
X0022291Y0073017D01*
X0022263Y0072884D01*
X0022232Y0072751D01*
X0022196Y0072619D01*
X0022157Y0072488D01*
X0022113Y0072358D01*
X0022067Y0072230D01*
X0022016Y0072103D01*
X0021962Y0071978D01*
X0021904Y0071854D01*
X0021842Y0071732D01*
X0021777Y0071612D01*
X0021708Y0071494D01*
X0021636Y0071378D01*
X0021561Y0071264D01*
X0021482Y0071152D01*
X0021400Y0071043D01*
X0021315Y0070936D01*
X0021227Y0070831D01*
X0021136Y0070730D01*
X0021042Y0070631D01*
X0020945Y0070534D01*
X0020845Y0070441D01*
X0020743Y0070351D01*
X0020638Y0070263D01*
X0020530Y0070179D01*
X0020420Y0070098D01*
X0020308Y0070020D01*
X0020193Y0069945D01*
X0020077Y0069874D01*
X0019958Y0069807D01*
X0019838Y0069742D01*
X0019715Y0069682D01*
X0019591Y0069625D01*
X0019465Y0069571D01*
X0019338Y0069521D01*
X0019209Y0069475D01*
X0019080Y0069433D01*
X0018948Y0069395D01*
X0018816Y0069360D01*
X0018683Y0069330D01*
X0018549Y0069303D01*
X0018414Y0069280D01*
X0018279Y0069261D01*
X0018143Y0069246D01*
X0018007Y0069235D01*
X0017871Y0069228D01*
X0017734Y0069225D01*
X0017598Y0069226D01*
X0017461Y0069231D01*
X0017325Y0069240D01*
X0017189Y0069253D01*
X0017053Y0069270D01*
X0016918Y0069291D01*
X0016784Y0069316D01*
X0016650Y0069344D01*
X0016518Y0069377D01*
X0016386Y0069413D01*
X0016255Y0069454D01*
X0016126Y0069498D01*
X0015998Y0069546D01*
X0015872Y0069597D01*
X0015747Y0069653D01*
X0015623Y0069712D01*
X0015502Y0069774D01*
X0015382Y0069840D01*
X0015265Y0069909D01*
X0015149Y0069982D01*
X0015036Y0070059D01*
X0014925Y0070138D01*
X0014816Y0070221D01*
X0014710Y0070307D01*
X0014606Y0070395D01*
X0014505Y0070487D01*
X0014406Y0070582D01*
X0014311Y0070680D01*
X0014218Y0070780D01*
X0014129Y0070883D01*
X0014042Y0070989D01*
X0013958Y0071097D01*
X0013878Y0071208D01*
X0013801Y0071320D01*
X0013727Y0071436D01*
X0013657Y0071553D01*
X0013590Y0071672D01*
X0013527Y0071793D01*
X0013467Y0071916D01*
X0013411Y0072040D01*
X0013358Y0072166D01*
X0013310Y0072294D01*
X0013264Y0072423D01*
X0013223Y0072553D01*
X0013186Y0072685D01*
X0013152Y0072817D01*
X0013122Y0072950D01*
X0013097Y0073084D01*
X0013075Y0073219D01*
X0013057Y0073355D01*
X0013043Y0073491D01*
X0013033Y0073627D01*
X0013027Y0073763D01*
X0013025Y0073900D01*
D22*
X0027700Y0073900D03*
X0023700Y0043900D03*
X0031700Y0043900D03*
D23*
X0037700Y0051400D03*
X0017700Y0051400D03*
X0017700Y0073900D03*
X0037700Y0073900D03*
M02*
